M48
;DRILL file {KiCad (2015-09-22 BZR 6208)-product} date 29.8.2016 15:05:34
;FORMAT={-:-/ absolute / inch / decimal}
FMAT,2
INCH,TZ
T1C0.016
T2C0.032
T3C0.039
T4C0.091
%
G90
G05
M72
T1
X5.015Y-3.97
X5.395Y-3.755
X5.405Y-4.36
X5.415Y-4.54
X5.44Y-3.9
X5.445Y-4.27
X5.45Y-4.105
X5.475Y-4.05
X5.52Y-4.325
X5.56Y-4.46
X5.595Y-3.92
X5.605Y-4.24
T2
X5.0213Y-4.1
X5.0213Y-4.2
X5.1Y-4.1
X5.1Y-4.2
T3
X5.25Y-3.975
X5.25Y-4.075
X5.25Y-4.225
X5.25Y-4.325
T4
X4.915Y-3.9138
X4.915Y-4.3862
T0
M30
