G04 #@! TF.FileFunction,Copper,L1,Top,Signal*
%FSLAX46Y46*%
G04 Gerber Fmt 4.6, Leading zero omitted, Abs format (unit mm)*
G04 Created by KiCad (PCBNEW (2015-09-22 BZR 6208)-product) date 29.8.2016 15:05:32*
%MOMM*%
G01*
G04 APERTURE LIST*
%ADD10C,0.100000*%
%ADD11C,0.300000*%
%ADD12R,1.000000X1.600000*%
%ADD13R,1.198880X1.198880*%
%ADD14R,1.200000X0.400000*%
%ADD15R,0.700000X1.300000*%
%ADD16C,1.524000*%
%ADD17C,2.700020*%
%ADD18R,2.000000X1.900000*%
%ADD19C,1.900000*%
%ADD20R,0.800000X0.750000*%
%ADD21R,0.750000X0.800000*%
%ADD22R,0.500000X0.900000*%
%ADD23C,0.600000*%
%ADD24C,0.400000*%
%ADD25C,0.250000*%
G04 APERTURE END LIST*
D10*
D11*
X122532857Y-108438571D02*
X122532857Y-108210000D01*
X122590000Y-108095714D01*
X122704286Y-107981428D01*
X122932857Y-107924286D01*
X123332857Y-107924286D01*
X123561429Y-107981428D01*
X123675714Y-108095714D01*
X123732857Y-108210000D01*
X123732857Y-108438571D01*
X123675714Y-108552857D01*
X123561429Y-108667143D01*
X123332857Y-108724286D01*
X122932857Y-108724286D01*
X122704286Y-108667143D01*
X122590000Y-108552857D01*
X122532857Y-108438571D01*
X123732857Y-107410000D02*
X122532857Y-107410000D01*
X123104286Y-107410000D02*
X123104286Y-106724285D01*
X123732857Y-106724285D02*
X122532857Y-106724285D01*
X123732857Y-105524285D02*
X123732857Y-106210000D01*
X123732857Y-105867142D02*
X122532857Y-105867142D01*
X122704286Y-105981428D01*
X122818571Y-106095714D01*
X122875714Y-106210000D01*
X122532857Y-104495714D02*
X122532857Y-104724285D01*
X122590000Y-104838571D01*
X122647143Y-104895714D01*
X122818571Y-105010000D01*
X123047143Y-105067143D01*
X123504286Y-105067143D01*
X123618571Y-105010000D01*
X123675714Y-104952857D01*
X123732857Y-104838571D01*
X123732857Y-104610000D01*
X123675714Y-104495714D01*
X123618571Y-104438571D01*
X123504286Y-104381428D01*
X123218571Y-104381428D01*
X123104286Y-104438571D01*
X123047143Y-104495714D01*
X122990000Y-104610000D01*
X122990000Y-104838571D01*
X123047143Y-104952857D01*
X123104286Y-105010000D01*
X123218571Y-105067143D01*
X122532857Y-103638571D02*
X122532857Y-103524286D01*
X122590000Y-103410000D01*
X122647143Y-103352857D01*
X122761429Y-103295714D01*
X122990000Y-103238571D01*
X123275714Y-103238571D01*
X123504286Y-103295714D01*
X123618571Y-103352857D01*
X123675714Y-103410000D01*
X123732857Y-103524286D01*
X123732857Y-103638571D01*
X123675714Y-103752857D01*
X123618571Y-103810000D01*
X123504286Y-103867143D01*
X123275714Y-103924286D01*
X122990000Y-103924286D01*
X122761429Y-103867143D01*
X122647143Y-103810000D01*
X122590000Y-103752857D01*
X122532857Y-103638571D01*
X123047143Y-102552857D02*
X122990000Y-102667143D01*
X122932857Y-102724286D01*
X122818571Y-102781429D01*
X122761429Y-102781429D01*
X122647143Y-102724286D01*
X122590000Y-102667143D01*
X122532857Y-102552857D01*
X122532857Y-102324286D01*
X122590000Y-102210000D01*
X122647143Y-102152857D01*
X122761429Y-102095714D01*
X122818571Y-102095714D01*
X122932857Y-102152857D01*
X122990000Y-102210000D01*
X123047143Y-102324286D01*
X123047143Y-102552857D01*
X123104286Y-102667143D01*
X123161429Y-102724286D01*
X123275714Y-102781429D01*
X123504286Y-102781429D01*
X123618571Y-102724286D01*
X123675714Y-102667143D01*
X123732857Y-102552857D01*
X123732857Y-102324286D01*
X123675714Y-102210000D01*
X123618571Y-102152857D01*
X123504286Y-102095714D01*
X123275714Y-102095714D01*
X123161429Y-102152857D01*
X123104286Y-102210000D01*
X123047143Y-102324286D01*
D12*
X133580000Y-113030000D03*
X130580000Y-113030000D03*
D13*
X142875000Y-106459020D03*
X142875000Y-104360980D03*
D14*
X141030000Y-107632500D03*
X141030000Y-106997500D03*
X141030000Y-106362500D03*
X141030000Y-105727500D03*
X141030000Y-105092500D03*
X141030000Y-104457500D03*
X141030000Y-103822500D03*
X141030000Y-103187500D03*
X135830000Y-103187500D03*
X135830000Y-103822500D03*
X135830000Y-104457500D03*
X135830000Y-105092500D03*
X135830000Y-105727500D03*
X135830000Y-106362500D03*
X135830000Y-106997500D03*
X135830000Y-107632500D03*
D15*
X135570000Y-115570000D03*
X133670000Y-115570000D03*
D16*
X129540000Y-104140000D03*
X129540000Y-106680000D03*
X127541020Y-106680000D03*
X127541020Y-104140000D03*
D17*
X124841000Y-99410520D03*
X124841000Y-111409480D03*
D18*
X133350000Y-103505000D03*
D19*
X133350000Y-100965000D03*
D20*
X131560000Y-115570000D03*
X130060000Y-115570000D03*
X139180000Y-109855000D03*
X137680000Y-109855000D03*
D21*
X130810000Y-97270000D03*
X130810000Y-95770000D03*
X128905000Y-97270000D03*
X128905000Y-95770000D03*
D20*
X137680000Y-100965000D03*
X139180000Y-100965000D03*
D18*
X133350000Y-107315000D03*
D19*
X133350000Y-109855000D03*
D22*
X134100000Y-97155000D03*
X132600000Y-97155000D03*
X134100000Y-95250000D03*
X132600000Y-95250000D03*
X142990000Y-109855000D03*
X141490000Y-109855000D03*
X135775000Y-99060000D03*
X137275000Y-99060000D03*
X135775000Y-112395000D03*
X137275000Y-112395000D03*
X142990000Y-100965000D03*
X141490000Y-100965000D03*
D23*
X138303000Y-108458000D03*
X137287000Y-110744000D03*
X139065000Y-102870000D03*
X127381000Y-100838000D03*
X138176000Y-99060000D03*
X140208000Y-109855000D03*
X142367000Y-107696000D03*
X138430000Y-104267000D03*
X137541000Y-115316000D03*
X141224000Y-113284000D03*
X142113000Y-99568000D03*
X137033000Y-95377000D03*
D24*
X133670000Y-115570000D02*
X132080000Y-115570000D01*
X129540000Y-109220000D02*
X129540000Y-106680000D01*
X132080000Y-115570000D02*
X132080000Y-111760000D01*
X131560000Y-115570000D02*
X133670000Y-115570000D01*
X132080000Y-111760000D02*
X129540000Y-109220000D01*
X137680000Y-109855000D02*
X137680000Y-108954000D01*
X137680000Y-108954000D02*
X138176000Y-108458000D01*
X138176000Y-108458000D02*
X138303000Y-108458000D01*
X130060000Y-115570000D02*
X130060000Y-112280000D01*
X130060000Y-112280000D02*
X130580000Y-112800000D01*
X130580000Y-112800000D02*
X130580000Y-113030000D01*
X137680000Y-109855000D02*
X137680000Y-110351000D01*
X137680000Y-110351000D02*
X137287000Y-110744000D01*
X135830000Y-105727500D02*
X136842500Y-105727500D01*
X137680000Y-108954000D02*
X137680000Y-109855000D01*
X137922000Y-108712000D02*
X137680000Y-108954000D01*
X137922000Y-106807000D02*
X137922000Y-108712000D01*
X136842500Y-105727500D02*
X137922000Y-106807000D01*
X130060000Y-115570000D02*
X130060000Y-113550000D01*
X135830000Y-105727500D02*
X131127500Y-105727500D01*
X131127500Y-105727500D02*
X130810000Y-105410000D01*
X130810000Y-105410000D02*
X128811020Y-105410000D01*
X130810000Y-95770000D02*
X128905000Y-95770000D01*
X128905000Y-95770000D02*
X128790000Y-95885000D01*
X128790000Y-95885000D02*
X128270000Y-95885000D01*
X128270000Y-95885000D02*
X127635000Y-96520000D01*
X127635000Y-96520000D02*
X127635000Y-101600000D01*
X140017500Y-105092500D02*
X141030000Y-105092500D01*
X139700000Y-104775000D02*
X140017500Y-105092500D01*
X139700000Y-103505000D02*
X139700000Y-104775000D01*
X139065000Y-102870000D02*
X139700000Y-103505000D01*
X127635000Y-101600000D02*
X127635000Y-101092000D01*
X127635000Y-101092000D02*
X127381000Y-100838000D01*
X128811020Y-105410000D02*
X127541020Y-106680000D01*
X135570000Y-115570000D02*
X135570000Y-115250000D01*
X135570000Y-115250000D02*
X133580000Y-113260000D01*
X133580000Y-113260000D02*
X133580000Y-113030000D01*
X133580000Y-113030000D02*
X133580000Y-110085000D01*
X133580000Y-110085000D02*
X133350000Y-109855000D01*
X133665000Y-113115000D02*
X133580000Y-113030000D01*
X138176000Y-99060000D02*
X137275000Y-99060000D01*
X142875000Y-106459020D02*
X142875000Y-107188000D01*
X140208000Y-109855000D02*
X139180000Y-109855000D01*
X142875000Y-107188000D02*
X142367000Y-107696000D01*
X135830000Y-105092500D02*
X137223500Y-105092500D01*
X139180000Y-107049000D02*
X139180000Y-109855000D01*
X137223500Y-105092500D02*
X139180000Y-107049000D01*
D25*
X130810000Y-97270000D02*
X132485000Y-97270000D01*
X132485000Y-97270000D02*
X132600000Y-97155000D01*
X129540000Y-104140000D02*
X128905000Y-103505000D01*
X128905000Y-99175000D02*
X130810000Y-97270000D01*
X128905000Y-103505000D02*
X128905000Y-99175000D01*
X128905000Y-97270000D02*
X128905000Y-97155000D01*
X128905000Y-97155000D02*
X129540000Y-96520000D01*
X131445000Y-96520000D02*
X132600000Y-95365000D01*
X129540000Y-96520000D02*
X131445000Y-96520000D01*
X132600000Y-95365000D02*
X132600000Y-95250000D01*
X127541020Y-104140000D02*
X127635000Y-104140000D01*
X127635000Y-104140000D02*
X128270000Y-103505000D01*
X128270000Y-103505000D02*
X128270000Y-97905000D01*
X128270000Y-97905000D02*
X128905000Y-97270000D01*
X135830000Y-104457500D02*
X137680000Y-104457500D01*
X137680000Y-104457500D02*
X137680000Y-100965000D01*
X135830000Y-103822500D02*
X137680000Y-103822500D01*
X137680000Y-103822500D02*
X137680000Y-100965000D01*
X135830000Y-104457500D02*
X137477500Y-104457500D01*
X137477500Y-104457500D02*
X137795000Y-104775000D01*
X137680000Y-100965000D02*
X137680000Y-104660000D01*
X137680000Y-104660000D02*
X137795000Y-104775000D01*
X139382500Y-106362500D02*
X141030000Y-106362500D01*
X137795000Y-104775000D02*
X139382500Y-106362500D01*
X142875000Y-104360980D02*
X144145000Y-104360980D01*
X144145000Y-104360980D02*
X144145000Y-104140000D01*
X142990000Y-109855000D02*
X142990000Y-109105000D01*
X142990000Y-101715000D02*
X144145000Y-102870000D01*
X144145000Y-102870000D02*
X144145000Y-104140000D01*
X144145000Y-104140000D02*
X144145000Y-106680000D01*
X144145000Y-106680000D02*
X144145000Y-107950000D01*
X144145000Y-107950000D02*
X143510000Y-108585000D01*
X142990000Y-101715000D02*
X142990000Y-100965000D01*
X142990000Y-109105000D02*
X143510000Y-108585000D01*
X135775000Y-112395000D02*
X135775000Y-109740000D01*
X135255000Y-109220000D02*
X133350000Y-107315000D01*
X135775000Y-109740000D02*
X135255000Y-109220000D01*
X137275000Y-112395000D02*
X137275000Y-112280000D01*
X137275000Y-112280000D02*
X137541000Y-112014000D01*
X142240000Y-108585000D02*
X142240000Y-110490000D01*
X141287500Y-107632500D02*
X142240000Y-108585000D01*
X140716000Y-112014000D02*
X142240000Y-110490000D01*
X137541000Y-112014000D02*
X140716000Y-112014000D01*
X141030000Y-107632500D02*
X141287500Y-107632500D01*
X141030000Y-105727500D02*
X139636500Y-105727500D01*
X138430000Y-104521000D02*
X138430000Y-104267000D01*
X139636500Y-105727500D02*
X138430000Y-104521000D01*
X133350000Y-103505000D02*
X135255000Y-101600000D01*
X135890000Y-100965000D02*
X135890000Y-99175000D01*
X135255000Y-101600000D02*
X135890000Y-100965000D01*
X135890000Y-99175000D02*
X135775000Y-99060000D01*
X141030000Y-103822500D02*
X141668500Y-103822500D01*
X142113000Y-101854000D02*
X141490000Y-101231000D01*
X142113000Y-103378000D02*
X142113000Y-101854000D01*
X141668500Y-103822500D02*
X142113000Y-103378000D01*
X141490000Y-101231000D02*
X141490000Y-100965000D01*
X141030000Y-103187500D02*
X140652500Y-103187500D01*
X140652500Y-103187500D02*
X140335000Y-102870000D01*
X135255000Y-95250000D02*
X134100000Y-95250000D01*
X140335000Y-100330000D02*
X135255000Y-95250000D01*
X140335000Y-102870000D02*
X140335000Y-100330000D01*
X135830000Y-103187500D02*
X136207500Y-103187500D01*
X136207500Y-103187500D02*
X136525000Y-102870000D01*
X136525000Y-102870000D02*
X136525000Y-102235000D01*
X134100000Y-97155000D02*
X135890000Y-97155000D01*
X136525000Y-97790000D02*
X136525000Y-102235000D01*
X135890000Y-97155000D02*
X136525000Y-97790000D01*
X141490000Y-109855000D02*
X141490000Y-110097000D01*
X141490000Y-110097000D02*
X140081000Y-111506000D01*
X137160000Y-106934000D02*
X136588500Y-106362500D01*
X136588500Y-106362500D02*
X135830000Y-106362500D01*
X136525000Y-109220000D02*
X136525000Y-110490000D01*
X137160000Y-108585000D02*
X136525000Y-109220000D01*
X137160000Y-108585000D02*
X137160000Y-106934000D01*
X136525000Y-111125000D02*
X136525000Y-110490000D01*
X136906000Y-111506000D02*
X136525000Y-111125000D01*
X140081000Y-111506000D02*
X136906000Y-111506000D01*
X141490000Y-109970000D02*
X141490000Y-109855000D01*
D24*
X137541000Y-115316000D02*
X139573000Y-113284000D01*
X139573000Y-113284000D02*
X141224000Y-113284000D01*
X142113000Y-99568000D02*
X137922000Y-95377000D01*
X137922000Y-95377000D02*
X137033000Y-95377000D01*
D11*
G36*
X132171495Y-98027668D02*
X132350000Y-98063816D01*
X132850000Y-98063816D01*
X133016760Y-98032438D01*
X133160413Y-97940000D01*
X133543189Y-97940000D01*
X133671495Y-98027668D01*
X133850000Y-98063816D01*
X134350000Y-98063816D01*
X134516760Y-98032438D01*
X134660413Y-97940000D01*
X135861827Y-97940000D01*
X135950000Y-98028173D01*
X135950000Y-98151184D01*
X135525000Y-98151184D01*
X135358240Y-98182562D01*
X135205081Y-98281117D01*
X135102332Y-98431495D01*
X135066184Y-98610000D01*
X135066184Y-99510000D01*
X135097562Y-99676760D01*
X135196117Y-99829919D01*
X135315000Y-99911148D01*
X135315000Y-100726827D01*
X134848417Y-101193411D01*
X134848414Y-101193413D01*
X133945643Y-102096184D01*
X132350000Y-102096184D01*
X132183240Y-102127562D01*
X132030081Y-102226117D01*
X131927332Y-102376495D01*
X131891184Y-102555000D01*
X131891184Y-104455000D01*
X131922562Y-104621760D01*
X132021117Y-104774919D01*
X132171495Y-104877668D01*
X132350000Y-104913816D01*
X134350000Y-104913816D01*
X134516760Y-104882438D01*
X134669919Y-104783883D01*
X134771184Y-104635677D01*
X134771184Y-104657500D01*
X134794105Y-104779313D01*
X134771184Y-104892500D01*
X134771184Y-105292500D01*
X134802562Y-105459260D01*
X134901117Y-105612419D01*
X135051495Y-105715168D01*
X135108075Y-105726626D01*
X135063240Y-105735062D01*
X134910081Y-105833617D01*
X134807332Y-105983995D01*
X134771184Y-106162500D01*
X134771184Y-106188521D01*
X134678883Y-106045081D01*
X134528505Y-105942332D01*
X134350000Y-105906184D01*
X132350000Y-105906184D01*
X132183240Y-105937562D01*
X132030081Y-106036117D01*
X131927332Y-106186495D01*
X131891184Y-106365000D01*
X131891184Y-108265000D01*
X131922562Y-108431760D01*
X132021117Y-108584919D01*
X132171495Y-108687668D01*
X132350000Y-108723816D01*
X132501531Y-108723816D01*
X132163830Y-109060928D01*
X131950243Y-109575301D01*
X131949757Y-110132256D01*
X132162445Y-110647000D01*
X132555928Y-111041170D01*
X132930000Y-111196499D01*
X132930000Y-111799408D01*
X132913240Y-111802562D01*
X132760081Y-111901117D01*
X132730000Y-111945142D01*
X132730000Y-111760000D01*
X132680522Y-111511256D01*
X132632242Y-111439000D01*
X132539619Y-111300380D01*
X130190000Y-108950762D01*
X130190000Y-107722811D01*
X130225646Y-107708082D01*
X130566884Y-107367439D01*
X130751789Y-106922139D01*
X130752209Y-106439976D01*
X130568082Y-105994354D01*
X130227439Y-105653116D01*
X129782139Y-105468211D01*
X129299976Y-105467791D01*
X128854354Y-105651918D01*
X128513116Y-105992561D01*
X128328211Y-106437861D01*
X128327791Y-106920024D01*
X128511918Y-107365646D01*
X128852561Y-107706884D01*
X128890000Y-107722430D01*
X128890000Y-109220000D01*
X128924885Y-109395381D01*
X128939478Y-109468745D01*
X129080381Y-109679619D01*
X131430000Y-112029239D01*
X131430000Y-112880000D01*
X129602132Y-112880000D01*
X125880000Y-109157868D01*
X125880000Y-101662132D01*
X127695000Y-99847132D01*
X127695000Y-102928134D01*
X127300996Y-102927791D01*
X126855374Y-103111918D01*
X126514136Y-103452561D01*
X126329231Y-103897861D01*
X126328811Y-104380024D01*
X126512938Y-104825646D01*
X126853581Y-105166884D01*
X127298881Y-105351789D01*
X127781044Y-105352209D01*
X128226666Y-105168082D01*
X128540759Y-104854537D01*
X128852561Y-105166884D01*
X129297861Y-105351789D01*
X129780024Y-105352209D01*
X130225646Y-105168082D01*
X130566884Y-104827439D01*
X130751789Y-104382139D01*
X130752209Y-103899976D01*
X130568082Y-103454354D01*
X130227439Y-103113116D01*
X129782139Y-102928211D01*
X129480000Y-102927948D01*
X129480000Y-99413172D01*
X130764357Y-98128816D01*
X131185000Y-98128816D01*
X131351760Y-98097438D01*
X131504919Y-97998883D01*
X131545152Y-97940000D01*
X132043189Y-97940000D01*
X132171495Y-98027668D01*
X132171495Y-98027668D01*
G37*
X132171495Y-98027668D02*
X132350000Y-98063816D01*
X132850000Y-98063816D01*
X133016760Y-98032438D01*
X133160413Y-97940000D01*
X133543189Y-97940000D01*
X133671495Y-98027668D01*
X133850000Y-98063816D01*
X134350000Y-98063816D01*
X134516760Y-98032438D01*
X134660413Y-97940000D01*
X135861827Y-97940000D01*
X135950000Y-98028173D01*
X135950000Y-98151184D01*
X135525000Y-98151184D01*
X135358240Y-98182562D01*
X135205081Y-98281117D01*
X135102332Y-98431495D01*
X135066184Y-98610000D01*
X135066184Y-99510000D01*
X135097562Y-99676760D01*
X135196117Y-99829919D01*
X135315000Y-99911148D01*
X135315000Y-100726827D01*
X134848417Y-101193411D01*
X134848414Y-101193413D01*
X133945643Y-102096184D01*
X132350000Y-102096184D01*
X132183240Y-102127562D01*
X132030081Y-102226117D01*
X131927332Y-102376495D01*
X131891184Y-102555000D01*
X131891184Y-104455000D01*
X131922562Y-104621760D01*
X132021117Y-104774919D01*
X132171495Y-104877668D01*
X132350000Y-104913816D01*
X134350000Y-104913816D01*
X134516760Y-104882438D01*
X134669919Y-104783883D01*
X134771184Y-104635677D01*
X134771184Y-104657500D01*
X134794105Y-104779313D01*
X134771184Y-104892500D01*
X134771184Y-105292500D01*
X134802562Y-105459260D01*
X134901117Y-105612419D01*
X135051495Y-105715168D01*
X135108075Y-105726626D01*
X135063240Y-105735062D01*
X134910081Y-105833617D01*
X134807332Y-105983995D01*
X134771184Y-106162500D01*
X134771184Y-106188521D01*
X134678883Y-106045081D01*
X134528505Y-105942332D01*
X134350000Y-105906184D01*
X132350000Y-105906184D01*
X132183240Y-105937562D01*
X132030081Y-106036117D01*
X131927332Y-106186495D01*
X131891184Y-106365000D01*
X131891184Y-108265000D01*
X131922562Y-108431760D01*
X132021117Y-108584919D01*
X132171495Y-108687668D01*
X132350000Y-108723816D01*
X132501531Y-108723816D01*
X132163830Y-109060928D01*
X131950243Y-109575301D01*
X131949757Y-110132256D01*
X132162445Y-110647000D01*
X132555928Y-111041170D01*
X132930000Y-111196499D01*
X132930000Y-111799408D01*
X132913240Y-111802562D01*
X132760081Y-111901117D01*
X132730000Y-111945142D01*
X132730000Y-111760000D01*
X132680522Y-111511256D01*
X132632242Y-111439000D01*
X132539619Y-111300380D01*
X130190000Y-108950762D01*
X130190000Y-107722811D01*
X130225646Y-107708082D01*
X130566884Y-107367439D01*
X130751789Y-106922139D01*
X130752209Y-106439976D01*
X130568082Y-105994354D01*
X130227439Y-105653116D01*
X129782139Y-105468211D01*
X129299976Y-105467791D01*
X128854354Y-105651918D01*
X128513116Y-105992561D01*
X128328211Y-106437861D01*
X128327791Y-106920024D01*
X128511918Y-107365646D01*
X128852561Y-107706884D01*
X128890000Y-107722430D01*
X128890000Y-109220000D01*
X128924885Y-109395381D01*
X128939478Y-109468745D01*
X129080381Y-109679619D01*
X131430000Y-112029239D01*
X131430000Y-112880000D01*
X129602132Y-112880000D01*
X125880000Y-109157868D01*
X125880000Y-101662132D01*
X127695000Y-99847132D01*
X127695000Y-102928134D01*
X127300996Y-102927791D01*
X126855374Y-103111918D01*
X126514136Y-103452561D01*
X126329231Y-103897861D01*
X126328811Y-104380024D01*
X126512938Y-104825646D01*
X126853581Y-105166884D01*
X127298881Y-105351789D01*
X127781044Y-105352209D01*
X128226666Y-105168082D01*
X128540759Y-104854537D01*
X128852561Y-105166884D01*
X129297861Y-105351789D01*
X129780024Y-105352209D01*
X130225646Y-105168082D01*
X130566884Y-104827439D01*
X130751789Y-104382139D01*
X130752209Y-103899976D01*
X130568082Y-103454354D01*
X130227439Y-103113116D01*
X129782139Y-102928211D01*
X129480000Y-102927948D01*
X129480000Y-99413172D01*
X130764357Y-98128816D01*
X131185000Y-98128816D01*
X131351760Y-98097438D01*
X131504919Y-97998883D01*
X131545152Y-97940000D01*
X132043189Y-97940000D01*
X132171495Y-98027668D01*
G36*
X138530000Y-107318239D02*
X138530000Y-109106125D01*
X138460081Y-109151117D01*
X138357332Y-109301495D01*
X138321184Y-109480000D01*
X138321184Y-110230000D01*
X138352562Y-110396760D01*
X138407000Y-110481359D01*
X138407000Y-110931000D01*
X137144173Y-110931000D01*
X137100000Y-110886828D01*
X137100000Y-109458172D01*
X137566587Y-108991586D01*
X137691231Y-108805043D01*
X137735000Y-108585000D01*
X137735000Y-106934000D01*
X137691231Y-106713957D01*
X137566586Y-106527414D01*
X136995086Y-105955914D01*
X136808543Y-105831269D01*
X136715135Y-105812689D01*
X136612410Y-105742500D01*
X136954262Y-105742500D01*
X138530000Y-107318239D01*
X138530000Y-107318239D01*
G37*
X138530000Y-107318239D02*
X138530000Y-109106125D01*
X138460081Y-109151117D01*
X138357332Y-109301495D01*
X138321184Y-109480000D01*
X138321184Y-110230000D01*
X138352562Y-110396760D01*
X138407000Y-110481359D01*
X138407000Y-110931000D01*
X137144173Y-110931000D01*
X137100000Y-110886828D01*
X137100000Y-109458172D01*
X137566587Y-108991586D01*
X137691231Y-108805043D01*
X137735000Y-108585000D01*
X137735000Y-106934000D01*
X137691231Y-106713957D01*
X137566586Y-106527414D01*
X136995086Y-105955914D01*
X136808543Y-105831269D01*
X136715135Y-105812689D01*
X136612410Y-105742500D01*
X136954262Y-105742500D01*
X138530000Y-107318239D01*
G36*
X139760000Y-100568172D02*
X139760000Y-102870000D01*
X139803769Y-103090043D01*
X139928414Y-103276586D01*
X139971184Y-103319356D01*
X139971184Y-103387500D01*
X139994105Y-103509313D01*
X139971184Y-103622500D01*
X139971184Y-104022500D01*
X139994105Y-104144313D01*
X139971184Y-104257500D01*
X139971184Y-104657500D01*
X140002562Y-104824260D01*
X140101117Y-104977419D01*
X140251495Y-105080168D01*
X140308075Y-105091626D01*
X140263240Y-105100062D01*
X140181749Y-105152500D01*
X139874673Y-105152500D01*
X139167881Y-104445709D01*
X139179869Y-104416839D01*
X139180130Y-104118470D01*
X139066189Y-103842714D01*
X138855395Y-103631552D01*
X138579839Y-103517131D01*
X138281470Y-103516870D01*
X138255000Y-103527807D01*
X138255000Y-101762136D01*
X138399919Y-101668883D01*
X138502668Y-101518505D01*
X138538816Y-101340000D01*
X138538816Y-100590000D01*
X138507438Y-100423240D01*
X138408883Y-100270081D01*
X138258505Y-100167332D01*
X138080000Y-100131184D01*
X137280000Y-100131184D01*
X137113240Y-100162562D01*
X137100000Y-100171082D01*
X137100000Y-99968816D01*
X137525000Y-99968816D01*
X137691760Y-99937438D01*
X137844919Y-99838883D01*
X137900419Y-99757656D01*
X138026161Y-99809869D01*
X138324530Y-99810130D01*
X138600286Y-99696189D01*
X138744277Y-99552449D01*
X139760000Y-100568172D01*
X139760000Y-100568172D01*
G37*
X139760000Y-100568172D02*
X139760000Y-102870000D01*
X139803769Y-103090043D01*
X139928414Y-103276586D01*
X139971184Y-103319356D01*
X139971184Y-103387500D01*
X139994105Y-103509313D01*
X139971184Y-103622500D01*
X139971184Y-104022500D01*
X139994105Y-104144313D01*
X139971184Y-104257500D01*
X139971184Y-104657500D01*
X140002562Y-104824260D01*
X140101117Y-104977419D01*
X140251495Y-105080168D01*
X140308075Y-105091626D01*
X140263240Y-105100062D01*
X140181749Y-105152500D01*
X139874673Y-105152500D01*
X139167881Y-104445709D01*
X139179869Y-104416839D01*
X139180130Y-104118470D01*
X139066189Y-103842714D01*
X138855395Y-103631552D01*
X138579839Y-103517131D01*
X138281470Y-103516870D01*
X138255000Y-103527807D01*
X138255000Y-101762136D01*
X138399919Y-101668883D01*
X138502668Y-101518505D01*
X138538816Y-101340000D01*
X138538816Y-100590000D01*
X138507438Y-100423240D01*
X138408883Y-100270081D01*
X138258505Y-100167332D01*
X138080000Y-100131184D01*
X137280000Y-100131184D01*
X137113240Y-100162562D01*
X137100000Y-100171082D01*
X137100000Y-99968816D01*
X137525000Y-99968816D01*
X137691760Y-99937438D01*
X137844919Y-99838883D01*
X137900419Y-99757656D01*
X138026161Y-99809869D01*
X138324530Y-99810130D01*
X138600286Y-99696189D01*
X138744277Y-99552449D01*
X139760000Y-100568172D01*
G36*
X141527690Y-113587690D02*
X137775734Y-116094667D01*
X136346631Y-116378933D01*
X136378816Y-116220000D01*
X136378816Y-114920000D01*
X136347438Y-114753240D01*
X136248883Y-114600081D01*
X136098505Y-114497332D01*
X135920000Y-114461184D01*
X135700422Y-114461184D01*
X134719238Y-113480000D01*
X137795000Y-113480000D01*
X137964332Y-113446925D01*
X138113198Y-113348198D01*
X138872396Y-112589000D01*
X140716000Y-112589000D01*
X140936043Y-112545231D01*
X141122586Y-112420586D01*
X142646586Y-110896587D01*
X142735861Y-110762978D01*
X142740000Y-110763816D01*
X143240000Y-110763816D01*
X143406760Y-110732438D01*
X143457192Y-110699986D01*
X141527690Y-113587690D01*
X141527690Y-113587690D01*
G37*
X141527690Y-113587690D02*
X137775734Y-116094667D01*
X136346631Y-116378933D01*
X136378816Y-116220000D01*
X136378816Y-114920000D01*
X136347438Y-114753240D01*
X136248883Y-114600081D01*
X136098505Y-114497332D01*
X135920000Y-114461184D01*
X135700422Y-114461184D01*
X134719238Y-113480000D01*
X137795000Y-113480000D01*
X137964332Y-113446925D01*
X138113198Y-113348198D01*
X138872396Y-112589000D01*
X140716000Y-112589000D01*
X140936043Y-112545231D01*
X141122586Y-112420586D01*
X142646586Y-110896587D01*
X142735861Y-110762978D01*
X142740000Y-110763816D01*
X143240000Y-110763816D01*
X143406760Y-110732438D01*
X143457192Y-110699986D01*
X141527690Y-113587690D01*
G36*
X127175381Y-96060381D02*
X127034478Y-96271255D01*
X127032275Y-96282332D01*
X126985000Y-96520000D01*
X126985000Y-99708604D01*
X125411802Y-101281802D01*
X125315454Y-101424925D01*
X125280000Y-101600000D01*
X125280000Y-109220000D01*
X125313075Y-109389332D01*
X125411802Y-109538198D01*
X129221802Y-113348198D01*
X129364925Y-113444546D01*
X129410000Y-113453674D01*
X129410000Y-114821125D01*
X129340081Y-114866117D01*
X129237332Y-115016495D01*
X129201184Y-115195000D01*
X129201184Y-115945000D01*
X129232562Y-116111760D01*
X129265201Y-116162483D01*
X128924266Y-116094667D01*
X125172310Y-113587690D01*
X122665333Y-109835734D01*
X122609065Y-109552857D01*
X124630000Y-109552857D01*
X124630000Y-101267143D01*
X122609065Y-101267143D01*
X122665333Y-100984266D01*
X125172310Y-97232310D01*
X127677095Y-95558666D01*
X127175381Y-96060381D01*
X127175381Y-96060381D01*
G37*
X127175381Y-96060381D02*
X127034478Y-96271255D01*
X127032275Y-96282332D01*
X126985000Y-96520000D01*
X126985000Y-99708604D01*
X125411802Y-101281802D01*
X125315454Y-101424925D01*
X125280000Y-101600000D01*
X125280000Y-109220000D01*
X125313075Y-109389332D01*
X125411802Y-109538198D01*
X129221802Y-113348198D01*
X129364925Y-113444546D01*
X129410000Y-113453674D01*
X129410000Y-114821125D01*
X129340081Y-114866117D01*
X129237332Y-115016495D01*
X129201184Y-115195000D01*
X129201184Y-115945000D01*
X129232562Y-116111760D01*
X129265201Y-116162483D01*
X128924266Y-116094667D01*
X125172310Y-113587690D01*
X122665333Y-109835734D01*
X122609065Y-109552857D01*
X124630000Y-109552857D01*
X124630000Y-101267143D01*
X122609065Y-101267143D01*
X122665333Y-100984266D01*
X125172310Y-97232310D01*
X127677095Y-95558666D01*
X127175381Y-96060381D01*
G36*
X137775734Y-94725333D02*
X141527690Y-97232310D01*
X143455658Y-100117717D01*
X143418505Y-100092332D01*
X143240000Y-100056184D01*
X142740000Y-100056184D01*
X142573240Y-100087562D01*
X142420081Y-100186117D01*
X142317332Y-100336495D01*
X142281184Y-100515000D01*
X142281184Y-101209012D01*
X142198816Y-101126644D01*
X142198816Y-100515000D01*
X142167438Y-100348240D01*
X142068883Y-100195081D01*
X141918505Y-100092332D01*
X141740000Y-100056184D01*
X141240000Y-100056184D01*
X141073240Y-100087562D01*
X140920081Y-100186117D01*
X140890106Y-100229987D01*
X140866231Y-100109957D01*
X140741586Y-99923414D01*
X135661586Y-94843414D01*
X135475043Y-94718769D01*
X135255000Y-94675000D01*
X134785296Y-94675000D01*
X134777438Y-94633240D01*
X134678883Y-94480081D01*
X134528505Y-94377332D01*
X134350000Y-94341184D01*
X133873723Y-94341184D01*
X133858000Y-94338000D01*
X132842000Y-94338000D01*
X132825078Y-94341184D01*
X132350000Y-94341184D01*
X132183240Y-94372562D01*
X132030081Y-94471117D01*
X131927332Y-94621495D01*
X131891184Y-94800000D01*
X131891184Y-95260643D01*
X131643816Y-95508011D01*
X131643816Y-95370000D01*
X131612438Y-95203240D01*
X131513883Y-95050081D01*
X131363505Y-94947332D01*
X131185000Y-94911184D01*
X130435000Y-94911184D01*
X130268240Y-94942562D01*
X130115081Y-95041117D01*
X130061182Y-95120000D01*
X129653875Y-95120000D01*
X129608883Y-95050081D01*
X129458505Y-94947332D01*
X129280000Y-94911184D01*
X128646120Y-94911184D01*
X128924266Y-94725333D01*
X133350000Y-93845000D01*
X137775734Y-94725333D01*
X137775734Y-94725333D01*
G37*
X137775734Y-94725333D02*
X141527690Y-97232310D01*
X143455658Y-100117717D01*
X143418505Y-100092332D01*
X143240000Y-100056184D01*
X142740000Y-100056184D01*
X142573240Y-100087562D01*
X142420081Y-100186117D01*
X142317332Y-100336495D01*
X142281184Y-100515000D01*
X142281184Y-101209012D01*
X142198816Y-101126644D01*
X142198816Y-100515000D01*
X142167438Y-100348240D01*
X142068883Y-100195081D01*
X141918505Y-100092332D01*
X141740000Y-100056184D01*
X141240000Y-100056184D01*
X141073240Y-100087562D01*
X140920081Y-100186117D01*
X140890106Y-100229987D01*
X140866231Y-100109957D01*
X140741586Y-99923414D01*
X135661586Y-94843414D01*
X135475043Y-94718769D01*
X135255000Y-94675000D01*
X134785296Y-94675000D01*
X134777438Y-94633240D01*
X134678883Y-94480081D01*
X134528505Y-94377332D01*
X134350000Y-94341184D01*
X133873723Y-94341184D01*
X133858000Y-94338000D01*
X132842000Y-94338000D01*
X132825078Y-94341184D01*
X132350000Y-94341184D01*
X132183240Y-94372562D01*
X132030081Y-94471117D01*
X131927332Y-94621495D01*
X131891184Y-94800000D01*
X131891184Y-95260643D01*
X131643816Y-95508011D01*
X131643816Y-95370000D01*
X131612438Y-95203240D01*
X131513883Y-95050081D01*
X131363505Y-94947332D01*
X131185000Y-94911184D01*
X130435000Y-94911184D01*
X130268240Y-94942562D01*
X130115081Y-95041117D01*
X130061182Y-95120000D01*
X129653875Y-95120000D01*
X129608883Y-95050081D01*
X129458505Y-94947332D01*
X129280000Y-94911184D01*
X128646120Y-94911184D01*
X128924266Y-94725333D01*
X133350000Y-93845000D01*
X137775734Y-94725333D01*
M02*
